<svg width="217" height="143" fill="none" xmlns="http://www.w3.org/2000/svg"><rect x="1" y="1" width="215" height="131" rx="16" stroke="#0F2B46" stroke-width="2"/><path d="M35.016 37V25.727h-8.844V37h1.406V26.992h6.031V37h1.407Zm2.132 2.734h1.36v-4.093h.031c.508.937 1.453 1.515 2.602 1.515 2.039 0 3.43-1.648 3.43-4.21v-.008c0-2.563-1.376-4.22-3.454-4.22-1.164 0-2.07.587-2.578 1.532h-.031v-1.375h-1.36v10.86Zm3.704-3.78c-1.368 0-2.352-1.196-2.352-3.009v-.008c0-1.82.977-3.015 2.352-3.015 1.437 0 2.328 1.148 2.328 3.015v.008c0 1.852-.89 3.008-2.328 3.008ZM46.094 37h1.343l4.047-6.04h.063V37h1.36v-8.125h-1.344l-4.047 6.04h-.063v-6.04h-1.36V37Zm8.718 0h3.5c1.727 0 2.79-.898 2.79-2.328v-.016c0-.992-.672-1.71-1.696-1.851v-.063c.75-.156 1.336-.922 1.336-1.758v-.015c0-1.29-.93-2.094-2.453-2.094h-3.477V37Zm1.36-4.727V30h1.914c.852 0 1.305.383 1.305 1.11v.015c0 .781-.485 1.148-1.508 1.148h-1.711Zm0 3.602v-2.477h1.781c1.188 0 1.758.391 1.758 1.227v.016c0 .812-.531 1.234-1.516 1.234h-2.023Zm9.836 1.281c1.773 0 3.101-1.062 3.367-2.406l.016-.078h-1.336l-.024.07c-.234.696-.96 1.211-1.992 1.211-1.445 0-2.367-.976-2.398-2.648h5.851v-.5c0-2.438-1.351-4.086-3.57-4.086s-3.656 1.726-3.656 4.242v.008c0 2.554 1.406 4.187 3.742 4.187Zm-.094-7.234c1.188 0 2.063.742 2.195 2.32h-4.445c.148-1.515 1.07-2.32 2.25-2.32Zm10.734-1.047h-6.593V30h2.617v7h1.36v-7h2.616v-1.125Zm.094 10.336h.969l1.14-3.82H77.43l-.688 3.82ZM27.625 57.25 30.867 61h1.719l-3.734-4.281 3.625-3.844h-1.649l-3.203 3.438h-.313v-3.438h-1.359V61h1.36v-3.75h.312Zm8.242 3.906c1.086 0 2.063-.586 2.54-1.476h.03V61h1.36v-5.617c0-1.625-1.203-2.664-3.125-2.664-1.914 0-3.078 1.078-3.195 2.414l-.008.086h1.312l.016-.07c.156-.727.812-1.227 1.86-1.227 1.132 0 1.78.601 1.78 1.594v.68l-2.328.132c-1.867.11-2.945.977-2.945 2.36v.015c0 1.477 1.086 2.453 2.703 2.453Zm-1.312-2.453v-.016c0-.757.625-1.242 1.71-1.304l2.172-.133v.664c0 1.18-.984 2.063-2.265 2.063-.977 0-1.617-.493-1.617-1.274Zm8.789-1.453L46.586 61h1.719l-3.735-4.281 3.625-3.844h-1.648l-3.203 3.438h-.313v-3.438h-1.36V61h1.36v-3.75h.313Zm9.836 5.977V61h6.304v2.227h1.266v-3.352h-1.29v-7h-5.593l-.312 4.508c-.078 1.094-.367 2.101-.961 2.492h-.68v3.352h1.266Zm4.922-3.352h-3.977v-.031c.406-.524.617-1.407.688-2.43l.25-3.414h3.039v5.875Zm7.218 1.281c1.774 0 3.102-1.062 3.368-2.406l.015-.078h-1.336l-.023.07c-.235.696-.961 1.211-1.992 1.211-1.446 0-2.368-.976-2.399-2.648h5.852v-.5c0-2.438-1.352-4.086-3.57-4.086-2.22 0-3.657 1.726-3.657 4.242v.008c0 2.554 1.406 4.187 3.742 4.187Zm-.093-7.234c1.187 0 2.062.742 2.195 2.32h-4.445c.148-1.515 1.07-2.32 2.25-2.32Zm6.968 3.5L72.453 54h2.734v7h1.36v-8.125h-5.32l-.32 4.516c-.102 1.492-.407 2.437-1.196 2.437-.211 0-.36-.031-.43-.055V61c.11.04.313.078.57.078 1.649 0 2.18-1.414 2.344-3.656Zm8.657 3.734c1.085 0 2.062-.586 2.539-1.476h.03V61h1.36v-5.617c0-1.625-1.203-2.664-3.125-2.664-1.914 0-3.078 1.078-3.195 2.414l-.008.086h1.313l.015-.07c.156-.727.813-1.227 1.86-1.227 1.132 0 1.78.601 1.78 1.594v.68l-2.327.132c-1.867.11-2.946.977-2.946 2.36v.015c0 1.477 1.086 2.453 2.704 2.453Zm-1.313-2.453v-.016c0-.757.625-1.242 1.711-1.304l2.172-.133v.664c0 1.18-.984 2.063-2.266 2.063-.976 0-1.617-.493-1.617-1.274Zm9.047-1.187h1.367v-.508c0-.82.281-1.258 1.274-1.844 1-.602 1.632-1.469 1.632-2.687v-.008c0-1.617-1.351-2.828-3.312-2.828-2.195 0-3.274 1.336-3.399 2.93l-.007.1h1.336l.007-.077c.102-1.04.829-1.735 2.008-1.735 1.156 0 1.914.703 1.914 1.68v.008c0 .828-.351 1.32-1.258 1.875-1.07.64-1.562 1.344-1.562 2.375v.719Zm.687 3.562c.508 0 .891-.39.891-.89a.871.871 0 0 0-.89-.891c-.5 0-.891.383-.891.89 0 .5.39.891.89.891Z" fill="#1B1E25"/><path d="M120 36.035h-9.5m9.5 0-1.577-1.535v3.069L120 36.034ZM110.5 43.103h9.5m-9.5 0 1.577-1.534v3.069l-1.577-1.535Z" stroke="#333" stroke-width="2"/><path d="M132.094 37h1.406v-5.133h6.188V37h1.406V25.727h-1.406v4.875H133.5v-4.875h-1.406V37Zm13.117.156c1.086 0 2.062-.586 2.539-1.476h.031V37h1.36v-5.617c0-1.625-1.203-2.664-3.125-2.664-1.914 0-3.078 1.078-3.196 2.414l-.008.086h1.313l.016-.07c.156-.727.812-1.227 1.859-1.227 1.133 0 1.781.601 1.781 1.594v.68l-2.328.132c-1.867.11-2.945.977-2.945 2.36v.015c0 1.477 1.086 2.453 2.703 2.453Zm-1.313-2.453v-.016c0-.757.625-1.242 1.711-1.304l2.172-.133v.664c0 1.18-.984 2.063-2.265 2.063-.977 0-1.618-.493-1.618-1.274Zm7.04 2.297h1.359V25.727h-1.359V37Zm3.265 0h1.359V25.727h-1.359V37Zm6.563.156c2.242 0 3.757-1.625 3.757-4.218v-.016c0-2.594-1.523-4.203-3.765-4.203S157 30.336 157 32.922v.016c0 2.585 1.508 4.218 3.766 4.218Zm.007-1.203c-1.437 0-2.382-1.101-2.382-3.016v-.015c0-1.899.953-3 2.367-3 1.437 0 2.375 1.094 2.375 3v.016c0 1.906-.93 3.015-2.36 3.015Zm4.11 3.258h.969l1.14-3.82h-1.422l-.687 3.82ZM172.977 37h1.382l1.829-6.29h.031l1.836 6.29h1.383l2.265-8.125h-1.344l-1.625 6.61h-.031l-1.844-6.61h-1.312l-1.836 6.61h-.031l-1.625-6.61h-1.352L172.977 37Zm10.609-9.5a.85.85 0 0 0 .852-.852.844.844 0 0 0-.852-.851.849.849 0 0 0-.852.851c0 .47.383.852.852.852Zm-.68 9.5h1.36v-8.125h-1.36V37Zm6.555.156c1.773 0 3.101-1.062 3.367-2.406l.016-.078h-1.336l-.024.07c-.234.696-.961 1.211-1.992 1.211-1.445 0-2.367-.976-2.398-2.648h5.851v-.5c0-2.438-1.351-4.086-3.57-4.086s-3.656 1.726-3.656 4.242v.008c0 2.554 1.406 4.187 3.742 4.187Zm-.094-7.234c1.188 0 2.063.742 2.195 2.32h-4.445c.149-1.515 1.071-2.32 2.25-2.32ZM135.32 63.89c2.203 0 3.586-1.235 3.586-3.118v-7.898h-1.359v1.375h-.031c-.5-.906-1.407-1.531-2.555-1.531-2.063 0-3.477 1.64-3.477 4.164v.008c0 2.539 1.399 4.187 3.446 4.187 1.164 0 2.101-.578 2.586-1.476h.031v1.039c0 1.257-.813 2.047-2.242 2.047-1.11 0-1.883-.36-2.141-.946l-.031-.07h-1.367l.015.07c.266 1.203 1.531 2.149 3.539 2.149Zm-.093-4.016c-1.446 0-2.352-1.14-2.352-2.984v-.008c0-1.805.906-2.961 2.352-2.961 1.375 0 2.32 1.172 2.32 2.96v.009c0 1.804-.938 2.984-2.32 2.984Zm8.781 1.281c1.773 0 3.101-1.062 3.367-2.406l.016-.078h-1.336l-.024.07c-.234.696-.961 1.211-1.992 1.211-1.445 0-2.367-.976-2.398-2.648h5.851v-.5c0-2.438-1.351-4.086-3.57-4.086s-3.656 1.726-3.656 4.242v.008c0 2.554 1.406 4.187 3.742 4.187Zm-.094-7.234c1.188 0 2.063.742 2.195 2.32h-4.445c.148-1.515 1.07-2.32 2.25-2.32ZM148.938 61h1.359v-4.742c0-1.383.836-2.336 2.094-2.336 1.265 0 2.015.867 2.015 2.336V61h1.36v-4.977c0-1.968-1.18-3.304-2.907-3.304-1.211 0-2.093.539-2.531 1.453h-.031v-4.445h-1.359V61Zm11.195.156c.265 0 .555-.031.726-.054V60c-.117.008-.273.031-.437.031-.727 0-1.11-.242-1.11-1.11V54h1.547v-1.125h-1.547V50.68h-1.406v2.195h-1.187V54h1.187v4.93c0 1.554.735 2.226 2.227 2.226Zm8.812 0c1.774 0 3.102-1.062 3.367-2.406l.016-.078h-1.336l-.023.07c-.235.696-.961 1.211-1.992 1.211-1.446 0-2.368-.976-2.399-2.648h5.852v-.5c0-2.438-1.352-4.086-3.571-4.086-2.218 0-3.656 1.726-3.656 4.242v.008c0 2.554 1.406 4.187 3.742 4.187Zm-.093-7.234c1.187 0 2.062.742 2.195 2.32h-4.445c.148-1.515 1.07-2.32 2.25-2.32Zm7.836 7.234c1.812 0 3.156-1 3.156-2.422v-.007c0-1.157-.594-1.805-2.235-2.204l-1.289-.312c-.898-.219-1.265-.602-1.265-1.156v-.008c0-.719.609-1.195 1.593-1.195 1.008 0 1.61.523 1.719 1.312l.008.055h1.297l-.008-.102c-.102-1.36-1.234-2.398-3.016-2.398-1.757 0-2.984.992-2.984 2.39v.008c0 1.172.742 1.883 2.274 2.25l1.289.313c.921.226 1.226.554 1.226 1.14v.008c0 .734-.656 1.195-1.758 1.195-1.109 0-1.711-.476-1.875-1.289l-.015-.078h-1.36l.008.07c.164 1.454 1.32 2.43 3.235 2.43ZM132.094 85h1.406V73.727h-1.406V85Zm3.453 0h1.359v-4.742c0-1.383.836-2.336 2.094-2.336 1.266 0 2.016.867 2.016 2.336V85h1.359v-4.977c0-1.968-1.18-3.304-2.906-3.304-1.211 0-2.094.539-2.531 1.453h-.032v-4.445h-1.359V85Zm8.555 0h1.359v-4.781c0-1.383.836-2.297 2.117-2.297 1.25 0 1.867.726 1.867 2.047V85h1.36v-5.273c0-1.852-1.032-3.008-2.813-3.008-1.234 0-2.062.554-2.5 1.312h-.031v-1.156h-1.359V85Zm11.781.156c1.773 0 3.101-1.062 3.367-2.406l.016-.078h-1.336l-.024.07c-.234.695-.961 1.211-1.992 1.211-1.445 0-2.367-.976-2.398-2.648h5.851v-.5c0-2.438-1.351-4.086-3.57-4.086s-3.656 1.726-3.656 4.242v.008c0 2.554 1.406 4.187 3.742 4.187Zm-.094-7.234c1.188 0 2.063.742 2.195 2.32h-4.445c.149-1.515 1.07-2.32 2.25-2.32ZM160.742 85h1.36v-4.781c0-1.383.836-2.297 2.117-2.297 1.25 0 1.867.726 1.867 2.047V85h1.359v-5.273c0-1.852-1.031-3.008-2.812-3.008-1.235 0-2.063.554-2.5 1.312h-.031v-1.156h-1.36V85Zm10.438-3.484h1.367v-.508c0-.82.281-1.258 1.273-1.844 1-.602 1.633-1.469 1.633-2.687v-.008c0-1.617-1.351-2.828-3.312-2.828-2.196 0-3.274 1.336-3.399 2.93l-.008.1h1.336l.008-.077c.102-1.04.828-1.735 2.008-1.735 1.156 0 1.914.704 1.914 1.68v.008c0 .828-.352 1.32-1.258 1.875-1.07.64-1.562 1.344-1.562 2.375v.719Zm.687 3.562c.508 0 .891-.39.891-.89a.871.871 0 0 0-.891-.891c-.5 0-.89.383-.89.89 0 .5.39.891.89.891Z" fill="#1B1E25"/><rect x="4.5" y="138.5" width="211" height="3" rx="1.5" stroke="#0F2B46" stroke-width="3"/></svg>