<svg width="96" height="96" viewBox="0 0 96 96" fill="none" xmlns="http://www.w3.org/2000/svg">
<path fill-rule="evenodd" clip-rule="evenodd" d="M16 7.9962C16 6.89373 16.9048 6 18.021 6H60.3239C61.3837 6 62.3928 6.41314 63.1427 7.16202C66.2957 10.3104 75.0209 19.0234 78.8304 22.8307C79.5806 23.5805 80 24.5959 80 25.6566V88.0038C80 89.1063 79.0952 90 77.979 90H18.021C16.9048 90 16 89.1063 16 88.0038V7.9962ZM60 7.9962L18 7.9962V88.0038H78V26H60V7.9962ZM62 8.99642V24H77.0002L62 8.99642ZM70 62C70 71.9411 61.9411 80 52 80C42.0589 80 34 71.9411 34 62C34 52.0589 42.0589 44 52 44V62H70ZM69.8901 60H54V44.1099C62.3432 45.0322 68.9678 51.6568 69.8901 60ZM72 62C72 73.0457 63.0457 82 52 82C40.9543 82 32 73.0457 32 62C32 50.9543 40.9543 42 52 42C63.0457 42 72 50.9543 72 62Z" fill="#373737"/>
<rect x="8" y="32" width="40" height="40" rx="4" fill="#F46F52"/>
<path d="M21 42V62H23.3881V55.6857H28.8507C34.0149 55.6857 37 53.1429 37 48.7143C37 44.4571 34.0149 42 28.8507 42H21ZM23.3881 44.2H28.7612C32.5224 44.2 34.7015 45.7429 34.7015 48.7714C34.7015 51.8857 32.5224 53.4857 28.7612 53.4857H23.3881V44.2Z" fill="white"/>
</svg>
