<svg width="100" height="100" viewBox="0 0 100 100" fill="none" xmlns="http://www.w3.org/2000/svg">
<path fill-rule="evenodd" clip-rule="evenodd" d="M47.6 18C45.4051 18 43.6 19.8051 43.6 22C43.6 24.7286 45.1161 28.116 46.7125 31.3C45.4646 35.2063 44.0486 39.3925 42.2375 42.925C41.5816 43.1824 40.9382 43.428 40.3125 43.667L40.3124 43.667C37.402 44.7784 34.8733 45.744 33.2375 47.0625C33.2065 47.0942 33.1773 47.1276 33.15 47.1625C32.4237 47.9052 32 48.9164 32 50C32 52.1949 33.8051 54 36 54C37.0703 54 38.1034 53.6006 38.85 52.8375C38.8758 52.8177 38.9009 52.7968 38.925 52.775C40.388 51.0281 42.113 47.8591 43.65 44.9625C47.1923 43.5691 50.905 42.1512 54.4875 41.3C57.1028 43.4077 60.8863 44.8 64 44.8C66.1949 44.8 68 42.9949 68 40.8C68 38.6051 66.1949 36.8 64 36.8C61.503 36.8 57.8744 37.6913 55.1 38.625C52.8512 36.5138 50.785 33.8772 49.3 31.075C49.4605 30.5806 49.6251 30.0861 49.7888 29.5941L49.7889 29.5937C50.7076 26.8335 51.6 24.1522 51.6 22C51.6 19.8051 49.7949 18 47.6 18ZM47.6 20.3999C48.4979 20.3999 49.2 21.102 49.2 21.9999C49.2 23.2005 48.5571 25.4109 47.8125 27.7874C46.8176 25.4755 46 23.2575 46 21.9999C46 21.102 46.7022 20.3999 47.6 20.3999ZM52.4375 39.3626C50.8996 37.7819 49.4906 36.0012 48.2875 34.0876C47.4507 36.6342 46.5667 39.2203 45.4625 41.7126C47.7487 40.8423 50.0654 40.0112 52.4375 39.3626ZM64 39.1999C64.8979 39.1999 65.6 39.9021 65.6 40.7999C65.6 41.6978 64.8979 42.3999 64 42.3999C62.1975 42.3999 59.6356 41.5863 57.5875 40.4499C59.9383 39.7852 62.5035 39.1999 64 39.1999ZM37.1 51.1876C37.8821 50.2445 39.0002 48.3704 40.125 46.3626C37.8048 47.2912 35.7634 48.1614 34.825 48.8876C34.5796 49.1579 34.4 49.5775 34.4 50.0001C34.4 50.8979 35.1021 51.6001 36 51.6001C36.4775 51.6001 36.8329 51.443 37.1 51.1876Z" fill="#DA5E5C"/>
<path fill-rule="evenodd" clip-rule="evenodd" d="M16 7.9962C16 6.89373 16.9048 6 18.021 6H64.3239C65.3837 6 66.3928 6.41314 67.1427 7.16202C70.2957 10.3104 79.0209 19.0234 82.8304 22.8307C83.5806 23.5805 84 24.5959 84 25.6566V92.0038C84 93.1063 83.0952 94 81.979 94H18.021C16.9048 94 16 93.1063 16 92.0038V7.9962ZM65 7.9962L18 7.9962V92.0038H82V25L65 7.9962Z" fill="#373737"/>
<rect x="12" y="62" width="50" height="22" rx="2" fill="#DA5E5C"/>
<path d="M29.2761 70.2326C29.2761 71.6945 28.797 72.8149 27.8387 73.5937C26.8804 74.3725 25.5165 74.762 23.7469 74.762H22.2903V80H20V66H24.0343C25.7848 66 27.0944 66.3575 27.9633 67.0725C28.8385 67.7875 29.2761 68.8409 29.2761 70.2326ZM22.2903 72.8372H23.5073C24.6828 72.8372 25.5452 72.6329 26.0946 72.2243C26.644 71.8158 26.9187 71.1774 26.9187 70.3092C26.9187 69.5048 26.6728 68.9047 26.1809 68.5089C25.689 68.1131 24.9223 67.9152 23.881 67.9152H22.2903V72.8372Z" fill="white"/>
<path d="M43.2719 72.8659C43.2719 75.1769 42.6299 76.9453 41.3458 78.171C40.0617 79.3903 38.2122 80 35.7974 80H31.878V66H36.2094C38.439 66 40.1735 66.6001 41.4129 67.8003C42.6522 69.0005 43.2719 70.689 43.2719 72.8659ZM40.8571 72.9425C40.8571 69.591 39.2887 67.9152 36.1519 67.9152H34.1683V78.0752H35.7974C39.1705 78.0752 40.8571 76.3643 40.8571 72.9425Z" fill="white"/>
<path d="M48.3653 80H46.0942V66H54V67.9343H48.3653V72.3105H53.6454V74.2544H48.3653V80Z" fill="white"/>
<path fill-rule="evenodd" clip-rule="evenodd" d="M66 24V7H64V26H83V24H66Z" fill="#373737"/>
</svg>
