<svg width="96" height="96" viewBox="0 0 96 96" fill="none" xmlns="http://www.w3.org/2000/svg">
<path fill-rule="evenodd" clip-rule="evenodd" d="M16 7.9962C16 6.89373 16.9048 6 18.021 6H60.3239C61.3837 6 62.3928 6.41315 63.1427 7.16203C66.2957 10.3104 75.0209 19.0234 78.8304 22.8307C79.5806 23.5805 80 24.5959 80 25.6566V88.0038C80 89.1063 79.0952 90 77.979 90H18.021C16.9048 90 16 89.1063 16 88.0038V7.9962ZM18 7.9962H60V26H78V88.0038H18V7.9962ZM62 8.99642L77.0002 24H62V8.99642ZM28 42H68V40H28V42ZM28 54H68V52H28V54ZM68 66H28V64H68V66Z" fill="#373737"/>
<rect x="8" y="32" width="40" height="40" rx="4" fill="#1F48A0"/>
<path d="M36.0405 62L43 42H40.542L34.9151 59.3429L29.229 42L26.8598 42.0286L21.233 59.3429L15.5469 42H13L19.9299 62H22.3583L28.0148 45.1429L33.612 62H36.0405Z" fill="white"/>
</svg>
