<svg xmlns="http://www.w3.org/2000/svg" width="24" height="24" fill="none" viewBox="0 0 24 24">
  <path fill="#1B1E25" fill-rule="evenodd" d="M12 3a9 9 0 1 0 0 18 9 9 0 0 0 0-18ZM1 12a11 11 0 1 1 22 0 11 11 0 0 1-22 0Z" clip-rule="evenodd"/>
  <path fill="#1B1E25" fill-rule="evenodd" d="M1 12a1 1 0 0 1 1-1h20a1 1 0 1 1 0 2H2a1 1 0 0 1-1-1Z" clip-rule="evenodd"/>
  <path fill="#1B1E25" fill-rule="evenodd" d="M9 12a14.3 14.3 0 0 0 3 8.45A14.3 14.3 0 0 0 15 12a14.3 14.3 0 0 0-3-8.45A14.3 14.3 0 0 0 9 12Zm3-10-.74-.67A16.3 16.3 0 0 0 7 12.03a16.3 16.3 0 0 0 4.26 10.64 1 1 0 0 0 1.48 0A16.3 16.3 0 0 0 17 11.97a16.3 16.3 0 0 0-4.26-10.64L12 2Z" clip-rule="evenodd"/>
</svg>