  <svg xmlns="http://www.w3.org/2000/svg" width="24" height="24" fill="none" viewBox="0 0 24 24">
    <path fill="#1B1E25" d="M22.16 5.66a8.3 8.3 0 0 1-2.4.65A4.2 4.2 0 0 0 21.6 4c-.82.49-1.72.83-2.66 1.01a4.18 4.18 0 0 0-7.12 3.82A11.87 11.87 0 0 1 3.2 4.46a4.17 4.17 0 0 0 1.3 5.58 4.17 4.17 0 0 1-1.9-.52v.05a4.18 4.18 0 0 0 3.35 4.1c-.61.17-1.26.2-1.89.07a4.19 4.19 0 0 0 3.91 2.91 8.4 8.4 0 0 1-6.2 1.73 11.83 11.83 0 0 0 6.42 1.88c7.7 0 11.9-6.37 11.9-11.9l-.01-.54a8.5 8.5 0 0 0 2.08-2.16Z" />
  </svg>