<?xml version="1.0" encoding="utf-8"?>
<!-- Generator: Adobe Illustrator 24.3.0, SVG Export Plug-In . SVG Version: 6.00 Build 0)  -->
<svg version="1.1" xmlns="http://www.w3.org/2000/svg" xmlns:xlink="http://www.w3.org/1999/xlink" x="0px" y="0px"
	 viewBox="0 0 1000 1000" style="enable-background:new 0 0 1000 1000;" xml:space="preserve">
<style type="text/css">
	.st0{display:none;}
	.st1{display:inline;fill:#260B12;}
	.st2{fill:#C41918;}
	.st3{fill:#E52421;}
</style>
<g id="Capa_1" class="st0">
	<path class="st1" d="M782.54,1000H217.46C97.36,1000,0,902.64,0,782.54V217.46C0,97.36,97.36,0,217.46,0h565.08
		C902.64,0,1000,97.36,1000,217.46v565.08C1000,902.64,902.64,1000,782.54,1000z"/>
</g>
<g id="Capa_2">
	<path class="st2" d="M737.54,301.07H246.89c-9.39,0-17.9,3.81-24.06,9.97c-6.16,6.16-9.97,14.67-9.97,24.07
		c0,18.79,15.24,34.03,34.03,34.03h203.82v64.79H253.07c-22.21,0-40.21,18-40.21,40.21V667.5c0,18.23,14.77,33,33,33h204.85
		c55.63,0,100.72-45.09,100.72-100.71V369.14h186.11c9.4,0,17.9-3.81,24.06-9.97c6.16-6.16,9.97-14.67,9.97-24.06
		C771.57,316.31,756.33,301.07,737.54,301.07z M450.71,599.36H300.07v-97.07h150.64V599.36z"/>
	<path class="st3" d="M649.29,584.79L649.29,584.79c14.04,0,25.43-11.38,25.43-25.43V403.29c0-14.04-11.38-25.43-25.43-25.43h0
		c-14.04,0-25.43,11.38-25.43,25.43v156.07C623.86,573.4,635.24,584.79,649.29,584.79z"/>
	<path class="st3" d="M726.08,594.6l-59.33,69.74c-9.09,10.69-25.59,10.7-34.69,0.03l-59.54-69.78c-6.4-7.5-5.25-18.83,2.53-24.88v0
		c7.37-5.74,17.97-4.59,23.94,2.6l39.13,47.11c5.8,6.99,16.53,6.99,22.33,0l39.12-47.1c5.97-7.19,16.58-8.34,23.95-2.6v0
		C731.31,575.77,732.47,587.09,726.08,594.6z"/>
	<path class="st3" d="M726.74,693.57h-154.9c-1.91,0-3.46,1.55-3.46,3.46l0,0c0,1.91,1.55,3.46,3.46,3.46h154.9
		c1.91,0,3.46-1.55,3.46-3.46l0,0C730.21,695.12,728.66,693.57,726.74,693.57z"/>
</g>
</svg>
